<mxfile host="app.diagrams.net" agent="Mozilla/5.0 (Windows NT 10.0; Win64; x64) AppleWebKit/537.36 (KHTML, like Gecko) Chrome/131.0.0.0 Safari/537.36" version="25.0.1">
  <diagram name="1 oldal" id="ADv9MQVQwivVzvmaQTJ-">
    <mxGraphModel dx="2261" dy="780" grid="1" gridSize="10" guides="1" tooltips="1" connect="1" arrows="1" fold="1" page="1" pageScale="1" pageWidth="827" pageHeight="1169" math="0" shadow="0">
      <root>
        <mxCell id="0" />
        <mxCell id="1" parent="0" />
        <mxCell id="Q8aSkOFPzvqk3jYPQHGS-45" value="Vásárló" style="rounded=0;whiteSpace=wrap;html=1;" vertex="1" parent="1">
          <mxGeometry y="90" width="320" height="30" as="geometry" />
        </mxCell>
        <mxCell id="Q8aSkOFPzvqk3jYPQHGS-49" value="VásárlóID&lt;hr&gt;PK, int, NN" style="rounded=0;whiteSpace=wrap;html=1;" vertex="1" parent="1">
          <mxGeometry y="120" width="80" height="40" as="geometry" />
        </mxCell>
        <mxCell id="Q8aSkOFPzvqk3jYPQHGS-50" value="Név&lt;div&gt;char (20), NN&lt;/div&gt;" style="rounded=0;whiteSpace=wrap;html=1;" vertex="1" parent="1">
          <mxGeometry x="80" y="120" width="80" height="40" as="geometry" />
        </mxCell>
        <mxCell id="Q8aSkOFPzvqk3jYPQHGS-51" value="email&lt;div&gt;char (30)&lt;/div&gt;" style="rounded=0;whiteSpace=wrap;html=1;" vertex="1" parent="1">
          <mxGeometry x="160" y="120" width="80" height="40" as="geometry" />
        </mxCell>
        <mxCell id="Q8aSkOFPzvqk3jYPQHGS-52" value="Telefonszám&lt;div&gt;int, NN&lt;/div&gt;" style="rounded=0;whiteSpace=wrap;html=1;" vertex="1" parent="1">
          <mxGeometry x="240" y="120" width="80" height="40" as="geometry" />
        </mxCell>
        <mxCell id="Q8aSkOFPzvqk3jYPQHGS-53" value="Rendelés" style="rounded=0;whiteSpace=wrap;html=1;" vertex="1" parent="1">
          <mxGeometry x="-440" y="90" width="400" height="30" as="geometry" />
        </mxCell>
        <mxCell id="Q8aSkOFPzvqk3jYPQHGS-54" value="RendelésID&lt;hr&gt;PK, int, NN" style="rounded=0;whiteSpace=wrap;html=1;" vertex="1" parent="1">
          <mxGeometry x="-440" y="120" width="80" height="40" as="geometry" />
        </mxCell>
        <mxCell id="Q8aSkOFPzvqk3jYPQHGS-55" value="Összeg&lt;div&gt;int, NN&lt;/div&gt;" style="rounded=0;whiteSpace=wrap;html=1;" vertex="1" parent="1">
          <mxGeometry x="-360" y="120" width="80" height="40" as="geometry" />
        </mxCell>
        <mxCell id="Q8aSkOFPzvqk3jYPQHGS-56" value="Dátum&lt;div&gt;int, NN&lt;/div&gt;" style="rounded=0;whiteSpace=wrap;html=1;" vertex="1" parent="1">
          <mxGeometry x="-280" y="120" width="80" height="40" as="geometry" />
        </mxCell>
        <mxCell id="Q8aSkOFPzvqk3jYPQHGS-57" value="Mennyiség&lt;div&gt;int, NN&lt;/div&gt;" style="rounded=0;whiteSpace=wrap;html=1;" vertex="1" parent="1">
          <mxGeometry x="-200" y="120" width="80" height="40" as="geometry" />
        </mxCell>
        <mxCell id="Q8aSkOFPzvqk3jYPQHGS-63" style="edgeStyle=orthogonalEdgeStyle;rounded=0;orthogonalLoop=1;jettySize=auto;html=1;exitX=1;exitY=0.5;exitDx=0;exitDy=0;entryX=0;entryY=0.5;entryDx=0;entryDy=0;" edge="1" parent="1" source="Q8aSkOFPzvqk3jYPQHGS-58" target="Q8aSkOFPzvqk3jYPQHGS-49">
          <mxGeometry relative="1" as="geometry" />
        </mxCell>
        <mxCell id="Q8aSkOFPzvqk3jYPQHGS-58" value="VásárlóID&lt;div&gt;FK, int, NN&lt;/div&gt;" style="rounded=0;whiteSpace=wrap;html=1;" vertex="1" parent="1">
          <mxGeometry x="-120" y="120" width="80" height="40" as="geometry" />
        </mxCell>
        <mxCell id="Q8aSkOFPzvqk3jYPQHGS-64" value="R-T" style="rounded=0;whiteSpace=wrap;html=1;" vertex="1" parent="1">
          <mxGeometry x="40" y="250" width="320" height="30" as="geometry" />
        </mxCell>
        <mxCell id="Q8aSkOFPzvqk3jYPQHGS-104" style="edgeStyle=orthogonalEdgeStyle;rounded=0;orthogonalLoop=1;jettySize=auto;html=1;exitX=0;exitY=0.5;exitDx=0;exitDy=0;entryX=0.5;entryY=1;entryDx=0;entryDy=0;" edge="1" parent="1" source="Q8aSkOFPzvqk3jYPQHGS-65" target="Q8aSkOFPzvqk3jYPQHGS-54">
          <mxGeometry relative="1" as="geometry" />
        </mxCell>
        <mxCell id="Q8aSkOFPzvqk3jYPQHGS-65" value="RendelésID&lt;hr&gt;PK, FK1" style="rounded=0;whiteSpace=wrap;html=1;" vertex="1" parent="1">
          <mxGeometry x="40" y="280" width="160" height="40" as="geometry" />
        </mxCell>
        <mxCell id="Q8aSkOFPzvqk3jYPQHGS-84" style="edgeStyle=orthogonalEdgeStyle;rounded=0;orthogonalLoop=1;jettySize=auto;html=1;exitX=1;exitY=0.5;exitDx=0;exitDy=0;entryX=0.25;entryY=1;entryDx=0;entryDy=0;" edge="1" parent="1" source="Q8aSkOFPzvqk3jYPQHGS-66" target="Q8aSkOFPzvqk3jYPQHGS-72">
          <mxGeometry relative="1" as="geometry" />
        </mxCell>
        <mxCell id="Q8aSkOFPzvqk3jYPQHGS-66" value="Tkód&lt;hr&gt;PK, FK2" style="rounded=0;whiteSpace=wrap;html=1;" vertex="1" parent="1">
          <mxGeometry x="200" y="280" width="160" height="40" as="geometry" />
        </mxCell>
        <mxCell id="Q8aSkOFPzvqk3jYPQHGS-68" value="Termék" style="rounded=0;whiteSpace=wrap;html=1;" vertex="1" parent="1">
          <mxGeometry x="360" y="90" width="320" height="30" as="geometry" />
        </mxCell>
        <mxCell id="Q8aSkOFPzvqk3jYPQHGS-69" value="Kategória&lt;div&gt;char (15), NN&lt;/div&gt;" style="rounded=0;whiteSpace=wrap;html=1;" vertex="1" parent="1">
          <mxGeometry x="600" y="120" width="80" height="40" as="geometry" />
        </mxCell>
        <mxCell id="Q8aSkOFPzvqk3jYPQHGS-70" value="Név&lt;div&gt;char (20), NN&lt;/div&gt;" style="rounded=0;whiteSpace=wrap;html=1;" vertex="1" parent="1">
          <mxGeometry x="440" y="120" width="80" height="40" as="geometry" />
        </mxCell>
        <mxCell id="Q8aSkOFPzvqk3jYPQHGS-71" value="Ár&lt;div&gt;int, NN&lt;/div&gt;" style="rounded=0;whiteSpace=wrap;html=1;" vertex="1" parent="1">
          <mxGeometry x="520" y="120" width="80" height="40" as="geometry" />
        </mxCell>
        <mxCell id="Q8aSkOFPzvqk3jYPQHGS-72" value="Tkód&lt;hr&gt;PK, int, NN" style="rounded=0;whiteSpace=wrap;html=1;" vertex="1" parent="1">
          <mxGeometry x="360" y="120" width="80" height="40" as="geometry" />
        </mxCell>
        <mxCell id="Q8aSkOFPzvqk3jYPQHGS-83" value="T-Ü" style="rounded=0;whiteSpace=wrap;html=1;" vertex="1" parent="1">
          <mxGeometry x="440" y="250" width="320" height="30" as="geometry" />
        </mxCell>
        <mxCell id="Q8aSkOFPzvqk3jYPQHGS-86" style="edgeStyle=orthogonalEdgeStyle;rounded=0;orthogonalLoop=1;jettySize=auto;html=1;exitX=0;exitY=0.5;exitDx=0;exitDy=0;entryX=0.75;entryY=1;entryDx=0;entryDy=0;" edge="1" parent="1" source="Q8aSkOFPzvqk3jYPQHGS-85" target="Q8aSkOFPzvqk3jYPQHGS-72">
          <mxGeometry relative="1" as="geometry" />
        </mxCell>
        <mxCell id="Q8aSkOFPzvqk3jYPQHGS-85" value="Tkód&lt;hr&gt;PK, FK1" style="rounded=0;whiteSpace=wrap;html=1;" vertex="1" parent="1">
          <mxGeometry x="440" y="280" width="160" height="40" as="geometry" />
        </mxCell>
        <mxCell id="Q8aSkOFPzvqk3jYPQHGS-102" style="edgeStyle=orthogonalEdgeStyle;rounded=0;orthogonalLoop=1;jettySize=auto;html=1;exitX=0.5;exitY=1;exitDx=0;exitDy=0;entryX=1;entryY=0.5;entryDx=0;entryDy=0;" edge="1" parent="1" source="Q8aSkOFPzvqk3jYPQHGS-87" target="Q8aSkOFPzvqk3jYPQHGS-90">
          <mxGeometry relative="1" as="geometry" />
        </mxCell>
        <mxCell id="Q8aSkOFPzvqk3jYPQHGS-87" value="ÜzletID&lt;hr&gt;PK, FK2" style="rounded=0;whiteSpace=wrap;html=1;" vertex="1" parent="1">
          <mxGeometry x="600" y="280" width="160" height="40" as="geometry" />
        </mxCell>
        <mxCell id="Q8aSkOFPzvqk3jYPQHGS-89" value="Üzlet" style="rounded=0;whiteSpace=wrap;html=1;" vertex="1" parent="1">
          <mxGeometry x="140" y="360" width="400" height="30" as="geometry" />
        </mxCell>
        <mxCell id="Q8aSkOFPzvqk3jYPQHGS-90" value="ÜzletID&lt;hr&gt;PK, int, NN" style="rounded=0;whiteSpace=wrap;html=1;" vertex="1" parent="1">
          <mxGeometry x="460" y="390" width="80" height="40" as="geometry" />
        </mxCell>
        <mxCell id="Q8aSkOFPzvqk3jYPQHGS-91" value="Név&lt;div&gt;char (10), NN&lt;/div&gt;" style="rounded=0;whiteSpace=wrap;html=1;" vertex="1" parent="1">
          <mxGeometry x="380" y="390" width="80" height="40" as="geometry" />
        </mxCell>
        <mxCell id="Q8aSkOFPzvqk3jYPQHGS-92" value="Város&lt;div&gt;char (15), NN&lt;/div&gt;" style="rounded=0;whiteSpace=wrap;html=1;" vertex="1" parent="1">
          <mxGeometry x="300" y="390" width="80" height="40" as="geometry" />
        </mxCell>
        <mxCell id="Q8aSkOFPzvqk3jYPQHGS-93" value="Adószám&lt;div&gt;int, NN&lt;/div&gt;" style="rounded=0;whiteSpace=wrap;html=1;" vertex="1" parent="1">
          <mxGeometry x="220" y="390" width="80" height="40" as="geometry" />
        </mxCell>
        <mxCell id="Q8aSkOFPzvqk3jYPQHGS-103" style="edgeStyle=orthogonalEdgeStyle;rounded=0;orthogonalLoop=1;jettySize=auto;html=1;exitX=0;exitY=0.5;exitDx=0;exitDy=0;entryX=1;entryY=0.5;entryDx=0;entryDy=0;" edge="1" parent="1" source="Q8aSkOFPzvqk3jYPQHGS-95" target="Q8aSkOFPzvqk3jYPQHGS-97">
          <mxGeometry relative="1" as="geometry" />
        </mxCell>
        <mxCell id="Q8aSkOFPzvqk3jYPQHGS-95" value="ID&lt;div&gt;FK, int, NN&lt;/div&gt;" style="rounded=0;whiteSpace=wrap;html=1;" vertex="1" parent="1">
          <mxGeometry x="140" y="390" width="80" height="40" as="geometry" />
        </mxCell>
        <mxCell id="Q8aSkOFPzvqk3jYPQHGS-96" value="Vezető" style="rounded=0;whiteSpace=wrap;html=1;" vertex="1" parent="1">
          <mxGeometry x="-240" y="360" width="320" height="30" as="geometry" />
        </mxCell>
        <mxCell id="Q8aSkOFPzvqk3jYPQHGS-97" value="ID&lt;hr&gt;PK, int, NN" style="rounded=0;whiteSpace=wrap;html=1;" vertex="1" parent="1">
          <mxGeometry y="390" width="80" height="40" as="geometry" />
        </mxCell>
        <mxCell id="Q8aSkOFPzvqk3jYPQHGS-99" value="email&lt;div&gt;char (30)&lt;/div&gt;" style="rounded=0;whiteSpace=wrap;html=1;" vertex="1" parent="1">
          <mxGeometry x="-80" y="390" width="80" height="40" as="geometry" />
        </mxCell>
        <mxCell id="Q8aSkOFPzvqk3jYPQHGS-100" value="Név&lt;div&gt;char (20), NN&lt;/div&gt;" style="rounded=0;whiteSpace=wrap;html=1;" vertex="1" parent="1">
          <mxGeometry x="-160" y="390" width="80" height="40" as="geometry" />
        </mxCell>
        <mxCell id="Q8aSkOFPzvqk3jYPQHGS-101" value="Telefonszám&lt;div&gt;int, NN&lt;/div&gt;" style="rounded=0;whiteSpace=wrap;html=1;" vertex="1" parent="1">
          <mxGeometry x="-240" y="390" width="80" height="40" as="geometry" />
        </mxCell>
      </root>
    </mxGraphModel>
  </diagram>
</mxfile>
